<svg width="29" height="28" viewBox="0 0 29 28" fill="none" xmlns="http://www.w3.org/2000/svg">
<path d="M26.8331 12.1667H6.35478L15.3014 3.21999C16.0164 2.50499 16.0164 1.33165 15.3014 0.616652C15.1318 0.446696 14.9304 0.311859 14.7086 0.219859C14.4868 0.12786 14.2491 0.0805054 14.0089 0.0805054C13.7688 0.0805054 13.5311 0.12786 13.3093 0.219859C13.0875 0.311859 12.8861 0.446696 12.7164 0.616652L0.634781 12.6983C0.464824 12.8679 0.329987 13.0694 0.237988 13.2912C0.145988 13.513 0.0986328 13.7507 0.0986328 13.9908C0.0986328 14.2309 0.145988 14.4687 0.237988 14.6905C0.329987 14.9122 0.464824 15.1137 0.634781 15.2833L12.7164 27.365C12.8862 27.5347 13.0877 27.6694 13.3095 27.7612C13.5312 27.8531 13.7689 27.9004 14.0089 27.9004C14.249 27.9004 14.4867 27.8531 14.7084 27.7612C14.9302 27.6694 15.1317 27.5347 15.3014 27.365C15.4712 27.1953 15.6058 26.9938 15.6977 26.772C15.7895 26.5502 15.8368 26.3125 15.8368 26.0725C15.8368 25.8324 15.7895 25.5948 15.6977 25.373C15.6058 25.1512 15.4712 24.9497 15.3014 24.78L6.35478 15.8333H26.8331C27.8414 15.8333 28.6664 15.0083 28.6664 14C28.6664 12.9917 27.8414 12.1667 26.8331 12.1667Z" fill="#606060"/>
</svg>
